solid ASCII
  facet normal 0.000000e+00 -1.000000e+00 0.000000e+00
    outer loop
      vertex   -6.000000e-02 -5.200000e-01 6.280000e-01
      vertex   -6.000000e-02 -5.200000e-01 -1.509903e-16
      vertex   6.000000e-02 -5.200000e-01 6.280000e-01
    endloop
  endfacet
  facet normal 0.000000e+00 -1.000000e+00 -0.000000e+00
    outer loop
      vertex   6.000000e-02 -5.200000e-01 6.280000e-01
      vertex   -6.000000e-02 -5.200000e-01 -1.509903e-16
      vertex   6.000000e-02 -5.200000e-01 -1.509903e-16
    endloop
  endfacet
  facet normal 0.000000e+00 0.000000e+00 -1.000000e+00
    outer loop
      vertex   -6.000000e-02 5.200000e-01 -1.509903e-16
      vertex   6.000000e-02 5.200000e-01 -1.509903e-16
      vertex   -6.000000e-02 -5.200000e-01 -1.509903e-16
    endloop
  endfacet
  facet normal 0.000000e+00 0.000000e+00 -1.000000e+00
    outer loop
      vertex   -6.000000e-02 -5.200000e-01 -1.509903e-16
      vertex   6.000000e-02 5.200000e-01 -1.509903e-16
      vertex   6.000000e-02 -5.200000e-01 -1.509903e-16
    endloop
  endfacet
  facet normal 1.000000e+00 0.000000e+00 -0.000000e+00
    outer loop
      vertex   6.000000e-02 5.200000e-01 -1.509903e-16
      vertex   6.000000e-02 5.200000e-01 6.280000e-01
      vertex   6.000000e-02 -5.200000e-01 -1.509903e-16
    endloop
  endfacet
  facet normal 1.000000e+00 0.000000e+00 0.000000e+00
    outer loop
      vertex   6.000000e-02 -5.200000e-01 -1.509903e-16
      vertex   6.000000e-02 5.200000e-01 6.280000e-01
      vertex   6.000000e-02 -5.200000e-01 6.280000e-01
    endloop
  endfacet
  facet normal 0.000000e+00 0.000000e+00 1.000000e+00
    outer loop
      vertex   6.000000e-02 5.200000e-01 6.280000e-01
      vertex   -6.000000e-02 5.200000e-01 6.280000e-01
      vertex   6.000000e-02 -5.200000e-01 6.280000e-01
    endloop
  endfacet
  facet normal 0.000000e+00 0.000000e+00 1.000000e+00
    outer loop
      vertex   6.000000e-02 -5.200000e-01 6.280000e-01
      vertex   -6.000000e-02 5.200000e-01 6.280000e-01
      vertex   -6.000000e-02 -5.200000e-01 6.280000e-01
    endloop
  endfacet
  facet normal -1.000000e+00 -0.000000e+00 -0.000000e+00
    outer loop
      vertex   -6.000000e-02 5.200000e-01 6.280000e-01
      vertex   -6.000000e-02 5.200000e-01 -1.509903e-16
      vertex   -6.000000e-02 -5.200000e-01 6.280000e-01
    endloop
  endfacet
  facet normal -1.000000e+00 0.000000e+00 0.000000e+00
    outer loop
      vertex   -6.000000e-02 -5.200000e-01 6.280000e-01
      vertex   -6.000000e-02 5.200000e-01 -1.509903e-16
      vertex   -6.000000e-02 -5.200000e-01 -1.509903e-16
    endloop
  endfacet
  facet normal 0.000000e+00 1.000000e+00 0.000000e+00
    outer loop
      vertex   -6.000000e-02 5.200000e-01 -1.509903e-16
      vertex   -6.000000e-02 5.200000e-01 6.280000e-01
      vertex   6.000000e-02 5.200000e-01 -1.509903e-16
    endloop
  endfacet
  facet normal 0.000000e+00 1.000000e+00 -0.000000e+00
    outer loop
      vertex   6.000000e-02 5.200000e-01 -1.509903e-16
      vertex   -6.000000e-02 5.200000e-01 6.280000e-01
      vertex   6.000000e-02 5.200000e-01 6.280000e-01
    endloop
  endfacet
endsolid
